<svg width="21" height="21" viewBox="0 0 21 21" fill="none" xmlns="http://www.w3.org/2000/svg">
<g clip-path="url(#clip0)">
<path d="M10.002 20.002C7.34983 20.002 4.80629 18.9484 2.93093 17.073C1.05557 15.1977 0.0019989 12.6541 0.0019989 10.002C0.0019989 7.3498 1.05557 4.80626 2.93093 2.9309C4.80629 1.05554 7.34983 0.00196746 10.002 0.00196746C10.5497 0.00103564 11.0966 0.0455214 11.637 0.134967C10.3941 0.382678 9.24173 0.96318 8.3029 1.81454C7.36407 2.66589 6.67399 3.75616 6.30628 4.969C5.93857 6.18185 5.90703 7.47177 6.21504 8.70114C6.52304 9.93051 7.15902 11.0532 8.05513 11.9494C8.95123 12.8456 10.0738 13.4817 11.3032 13.7899C12.5325 14.098 13.8224 14.0667 15.0353 13.6991C16.2482 13.3315 17.3386 12.6416 18.19 11.7029C19.0415 10.7641 19.6221 9.61186 19.87 8.36897C19.9581 8.90883 20.0023 9.45496 20.002 10.002C20.002 11.3152 19.7433 12.6155 19.2408 13.8288C18.7382 15.0421 18.0017 16.1445 17.0731 17.073C16.1445 18.0016 15.0421 18.7382 13.8288 19.2408C12.6156 19.7433 11.3152 20.002 10.002 20.002Z" fill="white"/>
</g>
<defs>
<clipPath id="clip0">
<rect width="20.003" height="20.004" fill="white"/>
</clipPath>
</defs>
</svg>
