<svg width="20" height="20" viewBox="0 0 20 20" fill="none" xmlns="http://www.w3.org/2000/svg">
<path d="M10 16.9231C13.8235 16.9231 16.9231 13.8235 16.9231 9.99998C16.9231 6.17647 13.8235 3.0769 10 3.0769C6.17649 3.0769 3.07692 6.17647 3.07692 9.99998C3.07692 13.8235 6.17649 16.9231 10 16.9231Z" fill="white"/>
<path d="M0.769231 10.7692C1.19407 10.7692 1.53846 10.4248 1.53846 9.99994C1.53846 9.57511 1.19407 9.23071 0.769231 9.23071C0.344396 9.23071 0 9.57511 0 9.99994C0 10.4248 0.344396 10.7692 0.769231 10.7692Z" fill="white"/>
<path d="M19.2308 10.7692C19.6556 10.7692 20 10.4248 20 9.99994C20 9.57511 19.6556 9.23071 19.2308 9.23071C18.8059 9.23071 18.4615 9.57511 18.4615 9.99994C18.4615 10.4248 18.8059 10.7692 19.2308 10.7692Z" fill="white"/>
<path d="M10.7692 19.2308C10.7692 18.8059 10.4248 18.4615 10 18.4615C9.57517 18.4615 9.23077 18.8059 9.23077 19.2308C9.23077 19.6556 9.57517 20 10 20C10.4248 20 10.7692 19.6556 10.7692 19.2308Z" fill="white"/>
<path d="M10.7692 0.769221C10.7692 0.344387 10.4248 -9.41753e-06 10 -9.41753e-06C9.57517 -9.41753e-06 9.23077 0.344387 9.23077 0.769221C9.23077 1.19406 9.57517 1.53845 10 1.53845C10.4248 1.53845 10.7692 1.19406 10.7692 0.769221Z" fill="white"/>
<path d="M3.93914 16.9945C4.23954 16.6941 4.23954 16.207 3.93914 15.9066C3.63874 15.6062 3.15169 15.6062 2.85129 15.9066C2.55088 16.207 2.55088 16.6941 2.85129 16.9945C3.15169 17.2949 3.63874 17.2949 3.93914 16.9945Z" fill="white"/>
<path d="M16.9934 3.94017C17.2938 3.63977 17.2938 3.15272 16.9934 2.85231C16.693 2.55191 16.2059 2.55191 15.9055 2.85231C15.6051 3.15272 15.6051 3.63977 15.9055 3.94017C16.2059 4.24057 16.693 4.24057 16.9934 3.94017Z" fill="white"/>
<path d="M16.9946 15.9053C16.6942 15.6049 16.2071 15.6049 15.9067 15.9053C15.6063 16.2057 15.6063 16.6928 15.9067 16.9932C16.2071 17.2936 16.6942 17.2936 16.9946 16.9932C17.295 16.6928 17.295 16.2057 16.9946 15.9053Z" fill="white"/>
<path d="M3.94035 2.851C3.63995 2.5506 3.1529 2.5506 2.8525 2.851C2.55209 3.15141 2.55209 3.63846 2.8525 3.93886C3.1529 4.23926 3.63995 4.23926 3.94035 3.93886C4.24075 3.63846 4.24075 3.15141 3.94035 2.851Z" fill="white"/>
</svg>
