<svg width="27" height="27" viewBox="0 0 27 27" fill="none" xmlns="http://www.w3.org/2000/svg">
<path d="M4.05 8.1C6.28675 8.1 8.1 6.28675 8.1 4.05C8.1 1.81325 6.28675 0 4.05 0C1.81325 0 0 1.81325 0 4.05C0 6.28675 1.81325 8.1 4.05 8.1Z" fill="white"/>
<path d="M4.05 8.1C6.28675 8.1 8.1 6.28675 8.1 4.05C8.1 1.81325 6.28675 0 4.05 0C1.81325 0 0 1.81325 0 4.05C0 6.28675 1.81325 8.1 4.05 8.1Z" fill="url(#paint0_linear_5_8)"/>
<path d="M4.05 27C6.28675 27 8.1 25.1867 8.1 22.95C8.1 20.7132 6.28675 18.9 4.05 18.9C1.81325 18.9 0 20.7132 0 22.95C0 25.1867 1.81325 27 4.05 27Z" fill="white"/>
<path d="M4.05 27C6.28675 27 8.1 25.1867 8.1 22.95C8.1 20.7132 6.28675 18.9 4.05 18.9C1.81325 18.9 0 20.7132 0 22.95C0 25.1867 1.81325 27 4.05 27Z" fill="url(#paint1_linear_5_8)"/>
<path d="M22.95 8.1C25.1867 8.1 27 6.28675 27 4.05C27 1.81325 25.1867 0 22.95 0C20.7132 0 18.9 1.81325 18.9 4.05C18.9 6.28675 20.7132 8.1 22.95 8.1Z" fill="white"/>
<path d="M22.95 8.1C25.1867 8.1 27 6.28675 27 4.05C27 1.81325 25.1867 0 22.95 0C20.7132 0 18.9 1.81325 18.9 4.05C18.9 6.28675 20.7132 8.1 22.95 8.1Z" fill="url(#paint2_linear_5_8)"/>
<path d="M22.95 27C25.1867 27 27 25.1867 27 22.95C27 20.7132 25.1867 18.9 22.95 18.9C20.7132 18.9 18.9 20.7132 18.9 22.95C18.9 25.1867 20.7132 27 22.95 27Z" fill="white"/>
<path d="M22.95 27C25.1867 27 27 25.1867 27 22.95C27 20.7132 25.1867 18.9 22.95 18.9C20.7132 18.9 18.9 20.7132 18.9 22.95C18.9 25.1867 20.7132 27 22.95 27Z" fill="url(#paint3_linear_5_8)"/>
<defs>
<linearGradient id="paint0_linear_5_8" x1="4.04997" y1="8.09997" x2="4.04997" y2="0" gradientUnits="userSpaceOnUse">
<stop stop-color="#3F51B5"/>
<stop offset="1" stop-color="#757DE8"/>
</linearGradient>
<linearGradient id="paint1_linear_5_8" x1="4.04997" y1="27" x2="4.04997" y2="18.9" gradientUnits="userSpaceOnUse">
<stop stop-color="#3F51B5"/>
<stop offset="1" stop-color="#757DE8"/>
</linearGradient>
<linearGradient id="paint2_linear_5_8" x1="22.95" y1="8.09997" x2="22.95" y2="0" gradientUnits="userSpaceOnUse">
<stop stop-color="#3F51B5"/>
<stop offset="1" stop-color="#757DE8"/>
</linearGradient>
<linearGradient id="paint3_linear_5_8" x1="22.95" y1="27" x2="22.95" y2="18.9" gradientUnits="userSpaceOnUse">
<stop stop-color="#3F51B5"/>
<stop offset="1" stop-color="#757DE8"/>
</linearGradient>
</defs>
</svg>
