<svg width="29" height="25" fill="none" xmlns="http://www.w3.org/2000/svg"><path d="M27.676 4.203a.875.875 0 0 0-.926-.283c.153-.294.282-.604.385-.925a.875.875 0 0 0-1.281-1.018c-.772.46-1.631.815-2.53 1.034a5.986 5.986 0 0 0-4.018-1.538 5.996 5.996 0 0 0-5.995 6.204 13.681 13.681 0 0 1-8.887-4.945.875.875 0 0 0-1.435.11 5.96 5.96 0 0 0-.817 3.027c0 .994.242 1.933.67 2.76a.874.874 0 0 0-.702.857v.064c0 1.803.79 3.414 2.041 4.513a.875.875 0 0 0-.207.878 6 6 0 0 0 3.351 3.675 9.41 9.41 0 0 1-4.088.925c-.406 0-.767-.015-1.137-.058a.875.875 0 0 0-.573 1.605 15.355 15.355 0 0 0 8.341 2.44c10.006 0 15.453-8.304 15.453-15.454V7.83a11.917 11.917 0 0 0 2.4-2.575.875.875 0 0 0-.045-1.052Z" fill="#fff" stroke="#101820" stroke-width="1.75" stroke-linejoin="round"/></svg>